{"title":"Insurgent 2015 HD-HQMic XVID AC3 HQ Hive-CM8 -={SPARROW}=-","uid":11813715,"size":1618632726,"categoryP":"video","categoryS":"other","magnet":"?xt=urn:btih:f47b42c334ede74421fb192c13072c0c3aa59218&amp;dn=Insurgent+2015+HD-HQMic+XVID+AC3+HQ+Hive-CM8+-%3D%7BSPARROW%7D%3D-&amp;tr=udp%3A%2F%2Ftracker.openbittorrent.com%3A80&amp;tr=udp%3A%2F%2Fopen.demonii.com%3A1337&amp;tr=udp%3A%2F%2Ftracker.coppersurfer.tk%3A6969&amp;tr=udp%3A%2F%2Fexodus.desync.com%3A6969","seeders":38,"leechers":15,"uploader":"SS132203","files":5,"time":1428998337,"description":"Insurgent 2015 HD-HQMic XVID AC3 HQ Hive-CM8 -={SPARROW}=-\n &lt;a href=&quot;\nhttp://imgsparrow.co/image/9y&quot; rel=&quot;nofollow&quot; target=&quot;_NEW&quot;&gt;\nhttp://imgsparrow.co/image/9y&lt;/a&gt;\n &lt;a href=&quot;\nhttp://imgsparrow.co/image/9b&quot; rel=&quot;nofollow&quot; target=&quot;_NEW&quot;&gt;\nhttp://imgsparrow.co/image/9b&lt;/a&gt;\n\nThx Hive\n\nCM8 Doing It Right The First Time\n\nSources:\n\nVideo: Italian HD-Cam-Free\nAudio: HQMic\nthx m8Â´s\n\nNotes:\n\ntried to get a line for this great movie, but 2 weeks have past and nothing, looks like its not coming\nthe cam audio thats already out isnt even bearable. voices werent understandable, and helicopter noise, first 20mins unwatchable...\nfinally got a nice HQMic for this movie, all is clear and understandable, no noises, action and effects are good too.\nwhat can you expect from this release is a nice video quality like on fast 7 and audio is even better than on my kingsman release(no phone is ringing-lol)\nits def a good watch till a vod or retail comes out\n\nVideoEncode:\n\nVideo was already very nice, the usual flicker which i mostly removed - around 90% i would say\ncouldnt do it completely or video woulda get hurt in the process.\nadded brightness,sharpness,contrast,smoother,noise filters and added saturation cause it was kinda pale and lowered red colourtone to get a normal skintone\nno one likes jaundice people lol :wink:\ndid around 5 different videos, this is the best of them.\nDaylight scenes are more than bright enough, darker scenes are good to watch now too.\n\nAudioEncode:\n\nI played a lot with it, besides the usual cleaning process i played with EQ to get the best out of it,all is fine now\nafterwards i synced the audio to my video, ofc everything is lipsync, as usual its not gonna get better than this, unless a line pops up, which i doubt\nenjoy\n\nVideo: 720x352 @bitrate 1700 2pass\nAudio: English HQ Mic Stereo @256\nSample: yes included\n\nPS: there are so many good sources out, but i need good audio for them,\n      if you have a good mic audio or even line stereo for the following movies,dont hesitate to contact me\n      movies i need audio for are: CHAPPIE,JUPITER ASCENDING;CINDERELLA and LAZARUS Effect\n      thx\n &lt;a href=&quot;\nhttp://www.imdb.com/title/tt2908446/&quot; rel=&quot;nofollow&quot; target=&quot;_NEW&quot;&gt;\nhttp://www.imdb.com/title/tt2908446/&lt;/a&gt;\n\nGeneral\nComplete name                            : Insurgent.2015.HD-HQMic.XVID.AC3.HQ.Hive-CM8.avi\nFormat                                   : AVI\nFormat/Info                              : Audio Video Interleave\nFile size                                : 1.48 GiB\nDuration                                 : 1h 47mn\nOverall bit rate                         : 1 969 Kbps\nWriting application                      : Nandub v1.0rc2\nWriting library                          : Nandub build 1853/release\n\nVideo\nID                                       : 0\nFormat                                   : MPEG-4 Visual\nFormat profile                           : Advanced Simple@L5\nFormat settings, BVOP                    : 2\nFormat settings, QPel                    : Yes\nFormat settings, GMC                     : No warppoints\nFormat settings, Matrix                  : Default (H.263)\nMuxing mode                              : Packed bitstream\nCodec ID                                 : XVID\nCodec ID/Hint                            : XviD\nDuration                                 : 1h 47mn\nBit rate                                 : 1 701 Kbps\nWidth                                    : 720 pixels\nHeight                                   : 352 pixels\nDisplay aspect ratio                     : 2.045\nFrame rate                               : 30.000 fps\nColor space                              : YUV\nChroma subsampling                       : 4:2:0\nBit depth                                : 8 bits\nScan type                                : Progressive\nCompression mode                         : Lossy\nBits/(Pixel*Frame)                       : 0.224\nStream size                              : 1.28 GiB (86%)\nWriting library                          : XviD 1.2.1 (UTC 2008-12-04)\n\nAudio\nID                                       : 1\nFormat                                   : AC-3\nFormat/Info                              : Audio Coding 3\nMode extension                           : CM (complete main)\nFormat settings, Endianness              : Big\nCodec ID                                 : 2000\nDuration                                 : 1h 47mn\nBit rate mode                            : Constant\nBit rate                                 : 256 Kbps\nChannel(s)                               : 2 channels\nChannel positions                        : Front: L R\nSampling rate                            : 48.0 KHz\nBit depth                                : 16 bits\nCompression mode                         : Lossy\nStream size                              : 198 MiB (13%)\nAlignment                                : Split accross interleaves\nInterleave, duration                     : 33 ms (1.00 video frame)\nInterleave, preload duration             : 500 ms\n\nPlot:Beatrice Prior must confront her inner demons and continue her fight against a powerful\nalliance which threatens to tear her society apart with the help from others on her side.\n\nCast:\nKate Winslet     ... Jeanine\nJai Courtney     ... Eric\nMekhi Phifer     ... Max\nShailene Woodley ... Tris \n &lt;a href=&quot;\nhttp://imgsparrow.co/image/9h&quot; rel=&quot;nofollow&quot; target=&quot;_NEW&quot;&gt;\nhttp://imgsparrow.co/image/9h&lt;/a&gt;\n &lt;a href=&quot;\nhttp://imgsparrow.co/image/95&quot; rel=&quot;nofollow&quot; target=&quot;_NEW&quot;&gt;\nhttp://imgsparrow.co/image/95&lt;/a&gt; &lt;a href=&quot;\nhttp://imgsparrow.co/image/9A&quot; rel=&quot;nofollow&quot; target=&quot;_NEW&quot;&gt;\nhttp://imgsparrow.co/image/9A&lt;/a&gt; &lt;a href=&quot;\nhttp://imgsparrow.co/image/9Q&quot; rel=&quot;nofollow&quot; target=&quot;_NEW&quot;&gt;\nhttp://imgsparrow.co/image/9Q&lt;/a&gt; &lt;a href=&quot;\nhttp://imgsparrow.co/image/9Z&quot; rel=&quot;nofollow&quot; target=&quot;_NEW&quot;&gt;\nhttp://imgsparrow.co/image/9Z&lt;/a&gt; &lt;a href=&quot;\nhttp://imgsparrow.co/image/9a&quot; rel=&quot;nofollow&quot; target=&quot;_NEW&quot;&gt;\nhttp://imgsparrow.co/image/9a&lt;/a&gt; &lt;a href=&quot;\nhttp://imgsparrow.co/image/9f&quot; rel=&quot;nofollow&quot; target=&quot;_NEW&quot;&gt;\nhttp://imgsparrow.co/image/9f&lt;/a&gt; &lt;a href=&quot;\nhttp://imgsparrow.co/image/9I&quot; rel=&quot;nofollow&quot; target=&quot;_NEW&quot;&gt;\nhttp://imgsparrow.co/image/9I&lt;/a&gt; &lt;a href=&quot;\nhttp://imgsparrow.co/image/9P&quot; rel=&quot;nofollow&quot; target=&quot;_NEW&quot;&gt;\nhttp://imgsparrow.co/image/9P&lt;/a&gt;\n &lt;a href=&quot;\nhttp://imgsparrow.org/images/2015/02/22/SPARROW.gif&quot; rel=&quot;nofollow&quot; target=&quot;_NEW&quot;&gt;\nhttp://imgsparrow.org/images/2015/02/22/SPARROW.gif&lt;/a&gt;","torrent":{"xt":"urn:btih:f47b42c334ede74421fb192c13072c0c3aa59218","amp;dn":"Insurgent+2015+HD-HQMic+XVID+AC3+HQ+Hive-CM8+-%3D%7BSPARROW%7D%3D-","amp;tr":["udp%3A%2F%2Ftracker.openbittorrent.com%3A80","udp%3A%2F%2Fopen.demonii.com%3A1337","udp%3A%2F%2Ftracker.coppersurfer.tk%3A6969","udp%3A%2F%2Fexodus.desync.com%3A6969"],"infoHash":"f47b42c334ede74421fb192c13072c0c3aa59218","infoHashBuffer":{"type":"Buffer","data":[244,123,66,195,52,237,231,68,33,251,25,44,19,7,44,12,58,165,146,24]},"announce":[],"urlList":[]}}